<svg width="64" height="64" viewBox="0 0 64 64" fill="none" xmlns="http://www.w3.org/2000/svg">
  <circle cx="32" cy="32" r="24" fill="#EEF3D2"/>
  <circle cx="32" cy="32" r="22" stroke="#6D8B3F" stroke-width="4"/>
  <path
    d="M33.1 14.5C26.8 21.6 22.9 27.1 22.9 35.1C22.9 44.2 30.1 49.5 36.8 49.5C43.4 49.5 49.3 44.2 49.3 36.6C49.3 28 43.7 20.8 33.1 14.5Z"
    fill="#7AA63B"
  />
  <path
    d="M38.6 23.9C33.9 28.7 31.2 32.6 31.2 37.8C31.2 42.5 34.4 45.6 38.9 45.6C42.5 45.6 46 42.8 46 38.4C46 33.1 42.6 28.5 38.6 23.9Z"
    fill="#DCEB9E"
  />
  <path
    d="M24.4 41.8C28.3 39.2 31.9 38.2 35.7 38.2C39.3 38.2 42.2 39.4 44.6 41.8"
    stroke="#365C24"
    stroke-linecap="round"
    stroke-width="4"
  />
</svg>
