<svg height="511pt" viewBox="1 -8 511.99963 511" width="511pt" xmlns="http://www.w3.org/2000/svg"><path d="m507.605469 342.292969-48.511719-48.515625-100.355469 100.355468c-17.914062 17.914063-40.398437 29.59375-64.820312 33.964844l63.941406 63.941406c5.855469 5.859376 15.355469 5.859376 21.210937 0 0 0 128.535157-128.53125 128.535157-128.53125 5.859375-5.859374 5.859375-15.359374 0-21.214843zm0 0"/><path d="m439.332031 271.113281c16.910157-16.90625 16.914063-44.417969.023438-61.335937-.019531-.019532-.039063-.039063-.058594-.058594-4.179687-4.175781-9.0625-7.394531-14.378906-9.546875 4.609375-11.660156 5.582031-31.378906-9.6875-46.652344-.039063-.039062-.078125-.082031-.121094-.121093-4.160156-4.132813-9.011719-7.320313-14.292969-9.460938 4.609375-11.652344 5.585938-31.375-9.675781-46.640625-.011719-.011719-.019531-.019531-.027344-.027344-4.183593-4.183593-9.070312-7.410156-14.394531-9.5625 4.609375-11.660156 5.582031-31.382812-9.6875-46.65625-.003906 0-.003906-.003906-.007812-.003906-.003907-.003906-.007813-.007813-.011719-.011719-16.917969-16.917968-44.441407-16.917968-61.359375 0l-28.441406 28.4375 14.542968 14.542969c24.234375 24.234375 24.234375 63.664063.003906 87.898437-8.15625 8.152344-18.175781 13.753907-29.097656 16.421876-2.613281 10.648437-8.066406 20.742187-16.375 29.046874-8.144531 8.144532-18.148437 13.742188-29.058594 16.414063-2.667968 10.90625-8.269531 20.914063-16.410156 29.054687-8.144531 8.144532-18.148437 13.742188-29.058594 16.414063-2.667968 10.90625-8.269531 20.914063-16.410156 29.058594-11.738281 11.734375-27.347656 18.203125-43.949218 18.203125-16.601563 0-32.210938-6.464844-43.949219-18.207032l-14.542969-14.542968-48.511719 48.515625c-5.859375 5.859375-5.859375 15.355469 0 21.214843l128.53125 128.53125c5.859375 5.859376 15.355469 5.855469 21.214844 0l92.007813-92.003906h25.921874c24.726563 0 47.972657-9.632812 65.457032-27.113281zm0 0"/><path d="m88.664062 287.109375c12.554688 12.558594 32.914063 12.558594 45.46875 0 12.558594-12.554687 12.558594-32.910156 0-45.46875 12.558594 12.558594 32.914063 12.558594 45.472657 0 12.554687-12.554687 12.554687-32.914063 0-45.46875 12.554687 12.554687 32.914062 12.554687 45.46875 0 12.554687-12.554687 12.554687-32.914063 0-45.46875 12.554687 12.554687 32.914062 12.554687 45.46875 0 12.558593-12.558594 12.558593-32.914063 0-45.472656l-64.109375-64.109375c-12.554688-12.554688-32.914063-12.554688-45.46875 0-12.554688 12.554687-12.554688 32.914062 0 45.46875l8.03125 8.035156c-12.554688-12.558594-32.914063-12.558594-45.46875 0-12.554688 12.554688-12.554688 32.914062 0 45.46875l16.066406 16.066406c-12.554688-12.554687-32.914062-12.554687-45.46875 0-12.558594 12.554688-12.558594 32.914063 0 45.46875l16.066406 16.070313c-12.558594-12.558594-32.914062-12.558594-45.472656 0-12.554688 12.554687-12.554688 32.910156 0 45.46875zm0 0"/><path d="m284.4375 19.820312c2.21875-2.21875 4.566406-4.257812 7.007812-6.152343l-8.773437-8.773438c-4.5625-4.566406-11.542969-5.695312-17.3125-2.8125l-37.023437 18.511719 27.664062 27.667969zm0 0"/></svg>