<svg id="_x30_1" height="512" viewBox="0 0 512 512" width="512" xmlns="http://www.w3.org/2000/svg"><path d="m440.45 277.44c-10.88 25.88-36.37 42.58-64.44 42.58h-.03c-22.09 0-40 17.91-40 40 0 22.09-17.91 40-40 40h-.47c-10.78 0-19.52-8.74-19.52-19.52v-.48c0-11.29-9.35-20.39-20.73-19.99-10.84.39-19.27 9.62-19.27 20.47 0 10.78-8.74 19.52-19.52 19.52h-.49c-22.09 0-40-17.91-40-40 0-22.09-17.91-40-40-40-27.95 0-53.44-16.53-64.32-42.28-10.08-23.9-15.66-50.17-15.66-77.74 0-111.4 91.08-201.53 202.84-199.98 107.78 1.49 195.73 89.5 197.15 197.29.37 28.43-5.2 55.53-15.54 80.13zm-48.73 81.46c-8.69 1.24-15.52 7.99-17.22 16.61-7.25 36.72-39.7 64.51-78.51 64.51h-80c-38.81 0-71.25-27.78-78.49-64.5-1.7-8.62-8.53-15.37-17.23-16.62-.14-.02-.27-.04-.41-.06-12.56-1.85-23.86 7.79-23.86 20.49v12.67c0 66.27 53.72 120 120 120h80.01c66.27 0 120-53.73 120-120v-12.68c0-12.7-11.3-22.33-23.87-20.49-.14.03-.28.05-.42.07zm-30.1-167.9c-17.9 10.44-28.23 26.94-54.69 30.54-6.42.87-11.16 6.52-10.87 12.99.01.15.01.31.02.46 1.41 26.33 23.48 47.22 49.84 47.26 27.65.05 50.09-22.36 50.09-50 0-16.7-8.19-31.48-20.78-40.56-4-2.88-9.36-3.17-13.61-.69zm-224.84.69c-12.58 9.08-20.78 23.86-20.78 40.56 0 27.64 22.43 50.05 50.09 50 26.36-.05 48.43-20.94 49.84-47.26.01-.15.02-.31.02-.46.29-6.47-4.45-12.12-10.87-12.99-26.46-3.59-36.79-20.09-54.69-30.54-4.26-2.48-9.62-2.19-13.61.69zm98.22 128.65c3.47 5.41 8.83 6.98 13.31 4.47 4.83-2.7 10.55-2.7 15.38 0 4.49 2.51 9.85.93 13.31-4.47 7.17-11.17 4.1-26.6-4.45-39.14-7.96-11.67-25.15-11.67-33.11 0-8.54 12.54-11.61 27.97-4.44 39.14z"/></svg>