<svg viewBox="0 0 512 512" xmlns="http://www.w3.org/2000/svg"><g id="Layer_43" data-name="Layer 43"><path d="m435 276.62c17.49-17.15 16.75-33.69 13.66-56.43-1-4.21 5.81-14 8.1-18.11 5.15-8.06 13.51-3.25 18.81-8.82 5.74-7.28 8.66-17.76 8.49-26.94-3.1 2.42-3.92 6.67-5.85 10-6 17.62-14.95 9.75-25.43 18.76a128.37 128.37 0 0 0 -7.8 11.09c-5.71-11.9-10.83-24.23-19-34.72-1.62-2.64-4.89-4.65-4.89-8 1.45-9 3.7-20.06 13.12-23.87 2.62-1 5.35-2.11 7.34-4.18 5.9-7.53 5-18.66 4.66-27.73-.31-2-.5-8.83-3.05-8.53-.94.48-.81 1.62-.82 2.49a46.26 46.26 0 0 1 -.44 5.39c-4.25 34.27-18 18-26.73 51.61-7.16-5.73-14.25-11.74-22.07-16.54-13.3-6-27.54-9.94-41.08-15.44 10.11 12.46 26.88 16.13 39.69 25-12.38 7.14-25.71 12.89-38.93 18.35-.51.1-.48.09-.88-.38-5-5.67-9.39-12-16.45-15.27 3.36 12 9.41 23 13.2 34.9 5.24 15.58 12.27 33.86 29.47 39.13-3.67-17-12.24-32.52-16.62-49.33-1-4.74 2.62-2.59 5-1.19 23.46 12.51 39 40.64 35.35 67.21-2.57 2.38-19.11-2-23-3.08-11.31-3.26-17.45-5.6-26.23-13.85 3.31 12.5 4.72 21.23-.38 33.64-6.92-1-10.59-7.4-14.14-12.68-.9-1.16-3.22-1.93-3.08.31 4.95 7.56 4.6 14.43 2.15 23-5.28 12-16.6 20-25.5 29.19-1.41-4.82 2.32-16.58-.32-19.15-1.86-3.78-15.06 26.2-16 28.77-.29 4.57 7.65 11.19 4.8 15.75-6.2 8.2-20.85 8.26-22.7 19.92 4.5-1.61 9.19-3.31 14-1.93 4.5 1.51 10.34 1.66 12.55 6.53 3 6.2 9.33 12.17 8.73 19.41-.3.46.29.29-.52.28a6 6 0 0 1 -1.24-.28c-10.24-3-23.3.88-28.13 10.88-3.14 9.74-3.42 20.39-6.91 30-6.92 11.81-26.33 11.78-36.41 4.29-9.6-9.66-4.83-26.75-12.39-37.61-6.1-7.76-17.23-10.22-26.41-7.51-.68.13-1 .38-1.31-.38-1-4.53 6.7-16.79 9.65-20.65 1.65-1.89 3.91-2.68 6.24-3.43a23.23 23.23 0 0 1 19.77.77c-1.46-10.74-13.87-11.72-20.61-18-2-1.55-3.55-3.14-2.67-5.78 3.66-9 7.81-9.66 2.15-19.47-3-6.59-6.34-13.06-10-19.33-.57-.75-1.18-2.5-2.23-2.44-5.13.74 4.27 26.16-4.23 16.4-13.09-12.38-31.75-28.51-20.84-48.15.76-1.54.68-3.1-1.46-2.15-2.61 1.21-3 4.5-4.89 6.48-1.32 2-9.41 9.55-10.86 5.59-5.25-12.07-2.93-19.74-.14-31.63-.47-.56-1.56.75-1.95 1.08a40.06 40.06 0 0 1 -20.34 10.85c-8.67 2.19-17.65 5.69-26.68 4.77-4-20.3 7.8-48 24.76-60.45 4.19-2.65 20-16.84 14.37-2.51-4.47 15.56-12 30.08-15.78 45.87 19.43-5.63 24.57-27 31.71-43.46 5.71-13.5 12.87-26.31 19.46-39.37a83.39 83.39 0 0 0 -17.32 12.31c-3.15 3.79-5.38 8.28-8.14 12.37-13.38-5.24-26.29-12.03-39.26-18.24 12.52-9.42 30.27-12.46 39.84-25.56-13.16 5.88-27.18 9.54-40.39 15.24-8 4.48-14.62 11.12-22 16.48-.62.28-.62-.05-.81-.58-11.76-37.43-22.37-11.89-27.62-58.81-5.54 2.67-3.5 31.13.53 35.63 2.4 3.14 6.33 4.13 9.72 5.81 8.65 4.5 10.52 15.63 11.91 24.34-10.19 12.34-18 26.73-24.11 41.6-3.37-4.6-6.11-10.08-10.7-13.57-10.58-4.5-17.5-2.19-22.05-15.29-2.13-3.62-3.08-8.23-6.34-11 .13 9.36 2.94 24.1 11.49 29.32 3.31 1 7 .41 10.1 2.17 7.28 3 9.48 11.54 13.07 17.87 1.49 7.74-1.41 15.86-1 23.75-.16 7.62.59 15.08 4 22 2.78 5.18 6.11 10.57 10.93 14 1.13.7-.52 1.46-1.28 1.57-28.61 10.38-54.56-14.84-64.14-39.92-4.49-10.77-4.67-22.49-2.72-33.83 1.29-12.22 2-24.53 6.28-36.17 16.5-54.61 47.18-108.83 98.41-137.32 1.76 8.9 6.76 16.67 11.76 24.03 19.44 13.36 44.71 13 67.13 9.17 6.85-1.06 9.32 6.81 13.53 10.67 5.74 5.79 17.64 17.78 25.53 18.73 2.46-1.36-2.81-4.09-3.73-5.19-13.28-12.83-27.81-27.5-31.27-46.32 13.2.65 24.25 9.3 35.16 15.86 6.21-12.16 14.43-24.06 24.74-32.88a113.61 113.61 0 0 1 24.54 32.89c10.84-7.21 22.15-14.34 35.26-16.3-3.49 19.51-18.75 34.87-32.73 47.91-.83.7-4.32 2.79-2.53 4 .63.43 1.31.08 1.92-.18 10.53-5 19.31-13.34 26.84-22.1 2.18-2.67 4.05-6.48 7.78-7.1 22.5 2.73 44.19 5 65.13-6.24a15.62 15.62 0 0 0 7.75-8c2.85-4.8 5.81-9.51 7.67-14.81a16.3 16.3 0 0 1 1.35-3.44c.25-.35 0-.31.38-.34a2.63 2.63 0 0 1 .54.17c13.18 7.32 25.09 17 35.75 27.65 28.66 28.69 48.06 65.34 59.53 104 5.65 13.4 7.44 27.88 8.61 42.27 3.15 17.7-1.94 36.32-12.69 50.62-14.72 19.03-31.87 29.82-56.19 21.82zm-205.69-20.32c-6.48-8.14-13.77-19-23.61-23-1.72 7-1.83 14.54 5 18.75 3.64 2.54 15.54 9.41 18.61 4.25zm76.89-22.65c-8.76 3.78-18.41 14.4-22.89 22.77 1.32 3.7 6.88.77 9.57.24 11.05-4.09 17.97-10.74 13.32-23.01z"/><path d="m155.68 369.58c1.9-28.82-14.28-42.41-42.35-40.09-8.88.82-17.71 2.16-26.48 3.73-8.49 1.21-17.22 4.58-25.78 2.36-8.23-2.74-16.81-4.78-24.65-8.52-9.72-5.48-20-30.11-24.23-40.83a100.09 100.09 0 0 1 -5.51-25.17c-.17-2.05-1.82-22.88 2.15-14.9 6.53 14.85 17 29.72 32.4 36.18 16.69 5.17 34.72 3.26 51.48-.61 8.4-1.68 17.07-5.07 25.67-3 32.58 4.62 52.76 30.22 51.6 62.82 1.18 11.21-3.62 23.12-14.3 28.03z"/><path d="m356.12 369.42c-16-7.14-15.4-26.71-13.28-41.5 3.11-26 24.05-45.23 49.49-49.09a23 23 0 0 1 12.84.1c8.73 1.65 17.38 3.77 26.17 5.1 16.14 2.07 34.7 3.23 48.58-6.7a77.89 77.89 0 0 0 23.18-31.21c5.48-10 1.09 26.91.16 28.33a118.39 118.39 0 0 1 -8.43 23.75c-4.26 7.91-11.54 25.1-19.26 28.93s-15.8 6-23.91 8.29a23.09 23.09 0 0 1 -13 .27c-35.46-6.34-84.2-19.8-82.54 33.73z"/><path d="m256.67 488.2c-18.43-.15-37.6-3.11-52.88-14.13-10.36-7.42-19.92-17.67-22.89-30.39-3-15.5-2.4-29.39 5.1-43.61 4.56-9.8 19.74-23.74 29.17-12.09 5.78 9.28 8.22 18.43 2.61 28.44-3.53 9.83-10.53 17.85-3 27.62 10.57 13.77 28.6 22.32 46 20.62a55.63 55.63 0 0 0 35.32-19.21c5.44-7.36 6.06-12 1.7-20.11-5.84-13.92-10.8-21.56-2-35.92 4-8.23 14.89-6.56 20.65-1.17 7.22 5.87 11.42 14.47 14 23.24 3.44 9.78 2.44 20.32.86 30.36-3.31 17.31-17.94 30.16-33 38-12.82 6.36-27.41 7.88-41.64 8.35z"/></g></svg>