<?xml version="1.0" encoding="UTF-8"?>
<svg xmlns="http://www.w3.org/2000/svg" xmlns:xlink="http://www.w3.org/1999/xlink" version="1.1" id="Capa_1" x="0px" y="0px" viewBox="0 0 512 512" style="enable-background:new 0 0 512 512;" xml:space="preserve" width="512" height="512">
<g>
	<path style="fill:none;stroke:#000000;stroke-width:30;stroke-miterlimit:10;" d="M256,259.361c-0.507,0-1.011-0.007-1.513-0.022&#10;&#9;&#9;c-16.479-0.476-31.303-10.02-38.692-24.906c-7.526-15.16-6.114-33.098,3.685-46.815l36.52-51.13l36.52,51.129&#10;&#9;&#9;c9.8,13.719,11.211,31.656,3.687,46.813c-7.391,14.89-22.226,24.433-38.716,24.909C256.962,259.354,256.482,259.361,256,259.361z"/>
	<path style="fill:none;stroke:#000000;stroke-width:30;stroke-miterlimit:10;" d="M256,259.361c-0.88,0-1.755-0.013-2.626-0.038&#10;&#9;&#9;c-31.515-0.912-59.844-19.081-73.911-47.416c-14.163-28.528-11.477-62.326,7.01-88.206L256,26.361l69.528,97.34&#10;&#9;&#9;c18.486,25.879,21.172,59.678,7.009,88.206c-14.067,28.335-42.396,46.504-73.932,47.416&#10;&#9;&#9;C257.755,259.348,256.88,259.361,256,259.361z"/>
	<path style="fill:none;stroke:#000000;stroke-width:30;stroke-miterlimit:10;" d="M329.108,389.427l106.894-116.429v-64.641&#10;&#9;&#9;c0-33.688,27.31-60.998,60.998-60.998h0v172.815L368.94,457.919V497H256V379.718l59.919-70.025&#10;&#9;&#9;c23.792-23.792,62.368-23.792,86.16,0"/>
	<path style="fill:none;stroke:#000000;stroke-width:30;stroke-miterlimit:10;" d="M182.892,389.427L75.998,272.998v-64.641&#10;&#9;&#9;c0-33.688-27.31-60.998-60.998-60.998h0v172.815l128.06,137.744V497H256V379.718l-59.919-70.025&#10;&#9;&#9;c-23.792-23.792-62.368-23.792-86.16,0"/>
	<g>
		<line style="fill:none;stroke:#000000;stroke-width:30;stroke-miterlimit:10;" x1="104.953" y1="0" x2="104.953" y2="90"/>
		<line style="fill:none;stroke:#000000;stroke-width:30;stroke-miterlimit:10;" x1="59.953" y1="45" x2="149.953" y2="45"/>
		
			<line style="fill:none;stroke:#000000;stroke-width:30;stroke-miterlimit:10;" x1="390.834" y1="102.614" x2="412.047" y2="123.827"/>
		
			<line style="fill:none;stroke:#000000;stroke-width:30;stroke-miterlimit:10;" x1="430.834" y1="32.614" x2="452.047" y2="53.827"/>
	</g>
</g>















</svg>
