<svg id="Layer_1" viewBox="0 0 48 48" xmlns="http://www.w3.org/2000/svg" data-name="Layer 1"><path d="m45.23 20.151c-2.513.443-5.862.683-9.688.008-2.792-.492-5.173-1.356-7.118-2.282-.327 2.393-1.016 4.813-2.193 7.131.756.442 1.6.767 2.519.929 1.097.193 2.177.145 3.184-.11.453-.115.805.441.501.796-.969 1.131-2.495 1.733-4.062 1.456-1.19-.21-2.183-.888-2.822-1.812-.329.548-.687 1.089-1.08 1.62-.873 1.181-1.882 2.269-3.008 3.25.326 3.425 1.361 6.951 3.673 10.081.851 1.152 2.072 2.518 3.815 3.823 1.224.916 2.81 1.196 4.274.754 2.084-.63 3.698-1.496 4.893-2.288 8.07-5.35 9.627-15.697 9.879-20.914.073-1.525-1.273-2.704-2.767-2.441zm-7.561 19.375c-1.401-1.085-3.087-1.852-4.968-2.184s-3.728-.187-5.415.353c-.458.147-.826-.36-.559-.76 1.389-2.083 3.925-3.255 6.538-2.794 2.614.461 4.595 2.429 5.188 4.862.114.467-.405.817-.785.523zm5.965-10.928c-.969 1.131-2.495 1.733-4.063 1.456-1.568-.276-2.796-1.363-3.319-2.758-.164-.438.356-.84.743-.577.859.584 1.857.999 2.954 1.193 1.097.193 2.177.145 3.184-.11.453-.115.805.441.501.796z"/><path d="m24.993 3.667c-.452-1.458-2.121-2.105-3.435-1.347-2.21 1.276-5.275 2.646-9.101 3.321s-7.175.435-9.688-.008c-1.493-.264-2.84.915-2.766 2.44.252 5.218 1.808 15.564 9.879 20.914 1.194.792 2.808 1.658 4.893 2.288 1.463.442 3.05.163 4.274-.754 1.743-1.305 2.964-2.671 3.815-3.823 5.754-7.787 3.678-18.043 2.13-23.032zm-19.641 12.367c-.387.263-.907-.139-.743-.577.524-1.395 1.752-2.481 3.32-2.758 1.568-.276 3.093.325 4.062 1.456.304.355-.048.911-.501.796-1.007-.255-2.087-.304-3.184-.11-1.097.193-2.095.609-2.954 1.193zm15.891 4.079c-.593 2.432-2.575 4.401-5.188 4.862-2.614.461-5.149-.711-6.538-2.794-.267-.4.101-.906.559-.76 1.687.54 3.534.685 5.415.353s3.567-1.099 4.968-2.184c.38-.295.899.055.785.523zm1.445-7.136c-1.007-.255-2.087-.304-3.184-.11-1.097.193-2.095.609-2.954 1.193-.387.263-.907-.139-.743-.577.524-1.395 1.752-2.481 3.32-2.758 1.568-.276 3.093.325 4.062 1.456.304.355-.048.911-.501.796z"/></svg>